<?xml version="1.0" standalone="no"?>
<!DOCTYPE svg PUBLIC "-//W3C//DTD SVG 20010904//EN"
 "http://www.w3.org/TR/2001/REC-SVG-20010904/DTD/svg10.dtd">
<svg version="1.0" xmlns="http://www.w3.org/2000/svg"
 width="666.000000pt" height="375.000000pt" viewBox="0 0 666.000000 375.000000"
 preserveAspectRatio="xMidYMid meet">

<g transform="translate(0.000000,375.000000) scale(0.100000,-0.100000)"
fill="#FFFFFF" stroke="none">
<path d="M1490 3164 c-19 -2 -78 -9 -130 -15 -52 -6 -142 -22 -200 -35 -104
-25 -323 -96 -344 -112 -6 -5 -57 -28 -113 -52 -100 -42 -179 -97 -226 -156
-11 -14 -31 -58 -46 -97 -25 -70 -26 -78 -24 -282 2 -115 7 -273 13 -350 6
-77 13 -229 15 -339 9 -376 57 -609 154 -739 48 -64 169 -179 243 -230 94 -65
261 -136 373 -158 110 -22 434 -17 560 8 116 23 469 114 553 142 31 11 102 32
157 47 101 27 128 38 222 97 194 121 313 271 412 518 57 146 130 634 157 1062
l7 107 53 0 c49 0 54 -2 54 -22 0 -98 48 -594 69 -713 5 -27 20 -115 34 -195
45 -257 133 -448 281 -607 76 -83 259 -205 341 -228 27 -8 91 -26 140 -40 600
-172 676 -188 935 -189 216 -1 290 9 408 55 75 30 213 97 222 108 3 3 31 26
64 50 65 49 162 147 202 206 37 54 88 210 108 325 9 52 21 169 26 260 6 91 15
228 20 305 21 284 32 629 22 700 -25 174 -101 271 -271 345 -53 23 -109 49
-126 57 -44 22 -223 80 -333 109 -325 84 -813 84 -1307 0 -438 -75 -619 -133
-725 -232 l-47 -44 -118 0 -118 0 -47 44 c-102 95 -266 150 -660 221 -270 49
-439 65 -715 69 -143 2 -276 2 -295 0z m509 -44 c468 -55 611 -78 831 -137 74
-20 162 -49 195 -65 82 -41 178 -141 194 -202 19 -77 10 -341 -19 -556 -6 -41
-19 -145 -31 -230 -31 -242 -67 -435 -90 -487 -104 -233 -155 -312 -275 -421
-35 -32 -99 -78 -141 -102 -43 -24 -80 -47 -83 -51 -5 -7 -280 -85 -561 -160
-338 -89 -582 -110 -792 -69 -118 23 -251 69 -291 101 -13 10 -27 19 -31 19
-4 0 -37 21 -74 47 -83 60 -228 213 -252 267 -24 57 -75 256 -90 357 -18 118
-15 523 4 669 52 389 89 530 177 661 78 116 116 152 245 227 97 56 258 97 480
123 55 6 102 13 104 15 9 8 418 4 500 -6z m3189 0 c321 -46 449 -75 522 -118
25 -15 57 -33 73 -41 56 -28 162 -138 209 -217 62 -106 83 -161 108 -290 52
-268 67 -397 76 -614 10 -269 -20 -514 -87 -718 -33 -99 -154 -237 -279 -320
-36 -23 -74 -49 -84 -57 -41 -31 -175 -78 -290 -102 -106 -22 -137 -24 -275
-20 -223 6 -342 31 -871 180 -165 46 -209 63 -287 108 -167 97 -302 242 -371
399 -18 41 -39 86 -46 100 -35 66 -52 150 -102 495 -35 242 -53 416 -60 600
-6 139 -5 168 11 214 23 70 107 158 190 199 140 69 585 160 945 192 69 6 127
13 129 16 9 8 424 4 489 -6z"/>
<path d="M1662 2388 c-7 -29 -37 -199 -67 -378 -30 -179 -66 -388 -80 -464
-13 -77 -23 -141 -22 -142 3 -3 112 -23 113 -21 4 5 174 1000 174 1019 0 12
-11 19 -37 23 -21 4 -45 9 -54 11 -12 3 -18 -8 -27 -48z"/>
<path d="M2100 2423 c-1 -17 -9 -96 -80 -713 -40 -355 -42 -327 23 -332 28 -2
54 -3 56 -2 2 2 21 163 42 359 21 195 42 362 47 370 5 11 15 -8 31 -62 12 -43
33 -114 47 -159 l24 -81 53 1 54 1 54 169 54 169 27 -239 c15 -131 35 -305 44
-385 l17 -146 51 5 c28 2 55 8 59 12 4 3 3 40 -2 81 -6 41 -31 265 -56 499
-25 234 -48 436 -51 448 -4 22 -9 24 -62 20 l-57 -3 -37 -110 c-20 -60 -49
-150 -64 -200 l-27 -90 -20 55 c-10 30 -39 118 -62 194 -24 76 -49 143 -57
147 -7 5 -34 9 -60 9 -39 0 -48 -3 -48 -17z"/>
<path d="M1180 2268 c-63 -72 -161 -181 -216 -242 -56 -61 -113 -125 -128
-142 l-25 -31 42 -34 c23 -19 67 -57 97 -85 128 -119 318 -287 336 -297 11 -7
14 8 14 81 l0 88 -139 123 c-76 68 -144 127 -151 131 -7 4 -11 13 -9 19 4 12
62 80 159 186 36 40 82 91 103 114 l38 42 -3 89 -3 89 -115 -131z"/>
<path d="M4030 2459 c0 -6 -6 -9 -14 -6 -19 8 -22 -25 -37 -418 -7 -176 -15
-390 -18 -475 -5 -118 -3 -157 7 -163 6 -4 12 -17 12 -28 0 -20 6 -20 229 -18
l228 2 7 187 c4 103 4 217 0 254 l-7 66 -128 0 -129 0 0 -60 0 -60 75 0 75 0
0 -89 c0 -48 -3 -109 -6 -135 l-7 -46 -120 0 -120 0 7 263 c4 144 11 312 16
372 6 61 10 140 10 178 l0 67 126 0 126 0 -4 -99 -3 -99 44 -6 c24 -3 49 -6
56 -6 8 0 14 41 19 139 3 77 9 147 12 155 4 11 0 16 -15 16 -12 0 -21 5 -21
10 0 6 -77 10 -210 10 -147 0 -210 -3 -210 -11z"/>
<path d="M4756 2405 c-3 -27 -8 -124 -11 -215 -4 -91 -12 -304 -19 -475 -7
-170 -8 -314 -4 -320 4 -5 8 -17 8 -27 0 -17 14 -18 195 -18 l195 0 0 60 0 60
-140 0 -140 0 0 98 c0 53 7 264 15 467 8 204 15 380 15 392 0 19 -6 22 -55 25
l-54 3 -5 -50z"/>
<path d="M5410 2313 l0 -100 150 -147 c83 -82 150 -152 148 -156 -2 -5 -69
-76 -150 -159 l-148 -149 0 -91 0 -92 154 158 c84 87 195 200 245 251 50 52
91 97 91 101 0 7 -268 273 -417 414 l-73 69 0 -99z"/>
</g>
</svg>
